<?xml version="1.0" standalone="no"?><!DOCTYPE svg PUBLIC "-//W3C//DTD SVG 1.1//EN" "http://www.w3.org/Graphics/SVG/1.1/DTD/svg11.dtd"><svg t="1666682157657" class="icon" viewBox="0 0 1024 1024" version="1.1" xmlns="http://www.w3.org/2000/svg" p-id="1684" xmlns:xlink="http://www.w3.org/1999/xlink" width="200" height="200"><path d="M225.814261 444.594087L812.165565 114.777043A89.043478 89.043478 0 0 1 944.840348 192.422957L944.840348 851.968a89.043478 89.043478 0 0 1-132.674783 77.601391l-586.351304-329.772521a89.043478 89.043478 0 0 1 0-155.202783z" fill="#000000" p-id="1685"></path><path d="M174.925913 930.59339101m-60.237913-1e-8l-0.044522 0q-60.237913 0-60.237913-60.237913l0-682.918956q0-60.237913 60.237913-60.237913l0.044522 0q60.237913 0 60.237913 60.237913l0 682.918956q0 60.237913-60.237913 60.237913Z" fill="#000000" p-id="1686"></path></svg>